<svg xmlns="http://www.w3.org/2000/svg" viewBox="0 0 1440 320"><path fill="#FFD9DE" fill-opacity="1" d="M0,288L10.4,266.7C20.9,245,42,203,63,165.3C83.5,128,104,96,125,90.7C146.1,85,167,107,188,122.7C208.7,139,230,149,250,128C271.3,107,292,53,313,42.7C333.9,32,355,64,376,117.3C396.5,171,417,245,438,266.7C459.1,288,480,256,501,218.7C521.7,181,543,139,563,144C584.3,149,605,203,626,218.7C647,235,668,213,689,186.7C709.6,160,730,128,751,144C772.2,160,793,224,814,224C834.8,224,856,160,877,165.3C897.4,171,918,245,939,234.7C960,224,981,128,1002,96C1022.6,64,1043,96,1064,144C1085.2,192,1106,256,1127,250.7C1147.8,245,1169,171,1190,154.7C1210.4,139,1231,181,1252,202.7C1273,224,1294,224,1315,202.7C1335.7,181,1357,139,1377,133.3C1398.3,128,1419,160,1430,176L1440,192L1440,0L1429.6,0C1419.1,0,1398,0,1377,0C1356.5,0,1336,0,1315,0C1293.9,0,1273,0,1252,0C1231.3,0,1210,0,1190,0C1168.7,0,1148,0,1127,0C1106.1,0,1085,0,1064,0C1043.5,0,1023,0,1002,0C980.9,0,960,0,939,0C918.3,0,897,0,877,0C855.7,0,835,0,814,0C793,0,772,0,751,0C730.4,0,710,0,689,0C667.8,0,647,0,626,0C605.2,0,584,0,563,0C542.6,0,522,0,501,0C480,0,459,0,438,0C417.4,0,397,0,376,0C354.8,0,334,0,313,0C292.2,0,271,0,250,0C229.6,0,209,0,188,0C167,0,146,0,125,0C104.3,0,83,0,63,0C41.7,0,21,0,10,0L0,0Z"></path></svg>